<svg t="1727778149682" class="icon" viewBox="0 0 1024 1024" version="1.1" xmlns="http://www.w3.org/2000/svg" p-id="9606" width="32" height="32"><path d="M885.44 295.04a129.92 129.92 0 0 0-80.96-56.64 296.32 296.32 0 0 0-138.88 0C616.32 105.6 534.08 96 512 96c-54.4 0-114.24 41.28-152.32 144.32a294.08 294.08 0 0 0-140.16-1.92 129.92 129.92 0 0 0-80.96 56.64c-10.56 19.52-44.8 99.84 60.8 216.96-80 90.56-88.64 167.36-60.8 216a131.2 131.2 0 0 0 81.92 57.92 233.28 233.28 0 0 0 58.88 7.04 387.52 387.52 0 0 0 80.64-9.92C398.08 886.72 457.6 928 512 928c22.08 0 104-9.6 153.6-143.68a387.84 387.84 0 0 0 79.04 9.6 233.28 233.28 0 0 0 58.88-7.04 131.2 131.2 0 0 0 81.92-57.92c27.84-48.64 19.2-125.44-60.8-216 105.6-118.08 71.36-198.4 60.8-217.92z m-141.76 0a172.16 172.16 0 0 1 44.16 5.12 64 64 0 0 1 41.92 26.56c10.88 19.2 10.56 69.44-50.88 140.16a822.4 822.4 0 0 0-80-64 776.64 776.64 0 0 0-15.36-101.44 301.76 301.76 0 0 1 60.16-6.4zM576 623.68c-22.4 13.12-43.52 24.64-64 34.88-20.16-10.24-41.28-21.76-64-34.88s-42.56-25.92-61.44-38.4C384 562.56 384 538.56 384 512s0-50.56 2.56-73.28c18.88-12.48 39.04-25.28 61.44-38.4s43.52-24.32 64-34.56c20.16 10.24 40.96 21.44 64 34.56s42.56 25.92 61.44 38.4c1.6 22.72 2.56 46.72 2.56 73.28s0 50.56-2.56 73.28c-19.2 12.48-39.36 25.28-61.44 38.4z m53.12 42.88c-2.24 13.76-4.8 26.88-7.36 39.04-11.84-3.84-24-8.32-36.8-13.76l23.36-12.8z m-189.44 25.28l-36.16 13.76c-2.88-12.16-5.44-24.96-7.68-38.72 7.04 3.84 13.44 8 20.48 12.16zM320 537.92c-11.2-8.64-21.44-17.6-32-25.92 9.6-8.32 19.84-17.28 32-25.92v51.84z m74.56-180.48q3.52-20.48 7.68-38.4c11.2 3.84 23.04 8 35.52 13.12l-22.72 12.8z m189.76-25.28c12.48-5.12 24.64-9.6 36.16-13.44 2.56 12.16 5.12 25.28 7.36 39.04l-20.8-12.8zM704 486.08l32 25.92-32 25.92V512v-25.92zM512 160c25.28 0 64 24.32 91.52 96A834.56 834.56 0 0 0 512 294.4a886.4 886.4 0 0 0-90.56-36.8C451.2 182.08 491.2 160 512 160z m-317.76 166.72a64 64 0 0 1 41.92-26.56 172.16 172.16 0 0 1 44.16-5.12 322.24 322.24 0 0 1 61.44 7.04 737.92 737.92 0 0 0-16.32 100.8 829.12 829.12 0 0 0-80.32 64c-61.44-70.72-61.76-120.96-50.88-140.16z m42.88 398.08a65.92 65.92 0 0 1-42.88-27.52c-10.88-18.88-10.56-69.12 50.24-139.52a824 824 0 0 0 80.96 64 748.48 748.48 0 0 0 16.32 101.44 228.16 228.16 0 0 1-104.64 1.6zM512 864c-20.8 0-60.8-22.08-90.24-96 26.24-10.88 58.24-23.04 90.24-38.4a940.16 940.16 0 0 0 91.2 38.4c-27.2 71.68-65.92 96-91.2 96z m317.76-166.72a65.92 65.92 0 0 1-42.88 27.52 224 224 0 0 1-103.68-1.92 769.92 769.92 0 0 0 15.68-101.76 913.28 913.28 0 0 0 80.64-64c60.8 71.04 61.12 121.28 50.24 140.16z" fill="#1296db" p-id="9607"></path></svg>